<?xml version="1.0" encoding="UTF-8"?>
<svg id="a" data-name="Ebene 1" xmlns="http://www.w3.org/2000/svg" viewBox="0 0 436 60">
  <g>
    <g>
      <g>
        <path d="m29.8,38.48c10.42,8.93,23.13,16.54,37.35,19.06,0,0,3.27.46,6.79.46h68.52s3.77-19.53,3.77-19.53H29.8Z" fill="#293545" stroke-width="0"/>
        <path d="m149.94,19.38H11.86c1.51,2.1,3.6,4.56,4.84,5.96h132.09s1.15-5.96,1.15-5.96Z" fill="#293545" stroke-width="0"/>
        <path d="m240.09,24.7s-6.03-1.73-12.49-3.75c-1.12-.41-1.82-.97-2.25-1.57h-38.01s0,0,0,0c.62,1.21.99,2.63,1,4.17,0,.58,0,1.18-.02,1.79h53.82c-.64-.25-1.32-.46-2.04-.64Z" fill="#293545" stroke-width="0"/>
        <path d="m169.28,38.48h-18.96s-3.77,19.53-3.77,19.53h33.71c8.61,0,15.72-4.04,20.61-10.37,2.06,8.35,11.51,12.4,24.53,12.4,14.31,0,23-4.71,25.66-13.93,0,0,.38-1.3.54-3.62.1-1.45.09-3.93.09-3.93v-.08s-19.58,0-19.58,0h0c.55.79.87,1.68.87,2.61,0,3.38-2.92,5.62-6.98,5.62-3.86,0-7.88-2.24-7.65-5.97.06-.97.28-1.76.39-2.27h-33.4s0,0,0,0c-1.96,4-5.91,6.8-10.16,6.8h-7.21s1.31-6.8,1.31-6.8Z" fill="#293545" stroke-width="0"/>
        <polygon points="172.97 19.38 154.01 19.38 152.85 25.34 171.82 25.34 172.97 19.38" fill="#293545" stroke-width="0"/>
        <polygon points="270.06 19.38 252.57 19.47 252.57 25.34 269.78 25.34 270.06 19.38" fill="#293545" stroke-width="0"/>
        <polygon points="312.59 19.38 279.09 19.38 276.33 25.34 309.48 25.34 312.59 19.38" fill="#293545" stroke-width="0"/>
        <polygon points="302.62 38.48 270.22 38.48 269.05 41 269.17 38.48 252.57 38.48 252.57 58.01 292.42 58.01 302.62 38.48" fill="#293545" stroke-width="0"/>
      </g>
      <g>
        <path d="m29.8,38.48c10.42,8.93,23.13,16.54,37.35,19.06,0,0,3.27.46,6.79.46h68.52s3.77-19.53,3.77-19.53H29.8Z" fill="#2a3b4f" stroke-width="0"/>
        <path d="m149.94,19.38H11.86c1.51,2.1,3.6,4.56,4.84,5.96h132.09s1.15-5.96,1.15-5.96Z" fill="#2a3b4f" stroke-width="0"/>
        <path d="m240.09,24.7s-6.03-1.73-12.49-3.75c-1.12-.41-1.82-.97-2.25-1.57h-38.01s0,0,0,0c.62,1.21.99,2.63,1,4.17,0,.58,0,1.18-.02,1.79h53.82c-.64-.25-1.32-.46-2.04-.64Z" fill="#2a3b4f" stroke-width="0"/>
        <path d="m169.28,38.48h-18.96s-3.77,19.53-3.77,19.53h33.71c8.61,0,15.72-4.04,20.61-10.37,2.06,8.35,11.51,12.4,24.53,12.4,14.31,0,23-4.71,25.66-13.93,0,0,.38-1.3.54-3.62.1-1.45.09-3.93.09-3.93v-.08s-19.58,0-19.58,0h0c.55.79.87,1.68.87,2.61,0,3.38-2.92,5.62-6.98,5.62-3.86,0-7.88-2.24-7.65-5.97.06-.97.28-1.76.39-2.27h-33.4s0,0,0,0c-1.96,4-5.91,6.8-10.16,6.8h-7.21s1.31-6.8,1.31-6.8Z" fill="#2a3b4f" stroke-width="0"/>
        <polygon points="172.97 19.38 154.01 19.38 152.85 25.34 171.82 25.34 172.97 19.38" fill="#2a3b4f" stroke-width="0"/>
        <polygon points="270.06 19.38 252.57 19.47 252.57 25.34 269.78 25.34 270.06 19.38" fill="#2a3b4f" stroke-width="0"/>
        <polygon points="312.59 19.38 279.09 19.38 276.33 25.34 309.48 25.34 312.59 19.38" fill="#2a3b4f" stroke-width="0"/>
        <polygon points="302.62 38.48 270.22 38.48 269.05 41 269.17 38.48 252.57 38.48 252.57 58.01 292.42 58.01 302.62 38.48" fill="#2a3b4f" stroke-width="0"/>
      </g>
    </g>
    <g>
      <g>
        <path d="m153.35,1.46H1c2.25,5.55,7.99,14.39,10.83,17.92h138.08s3.45-17.92,3.45-17.92Z" fill="#e94557" stroke-width="0"/>
        <path d="m270.9,1.46h-18.33s0,13.78,0,13.78c-4.86-10.84-11.88-12.6-16.96-13.76-.03,0-.06-.01-.09-.01h0c-7.92-1.27-16.8,0-22.02,4.63-.02,0-.05.04-.07.06-.4.31-4.76,3.42-6.41,10.76-2.73-9.3-10.18-15.45-21.09-15.45h-28.47s-3.45,17.92-3.45,17.92h18.96s.75-3.91.75-3.91h7.46c2.71.15,4.95,1.13,6.16,3.91h0s38.01,0,38.01,0c-.47-.66-.64-1.34-.64-1.93,0-2.98,3.82-4.22,5.9-4.22,1.24,0,3.7.45,4.88,2.23.56.85,1.02,2.64,1.14,3.91h0s33.44,0,33.44,0l.83-17.92Z" fill="#e94557" stroke-width="0"/>
        <polygon points="312.59 19.38 321.94 1.46 287.42 1.46 279.09 19.38 312.59 19.38" fill="#e94557" stroke-width="0"/>
        <polygon points="309.48 25.34 276.33 25.34 276.33 25.34 273.29 31.85 273.29 31.85 306.08 31.85 309.48 25.34 309.48 25.34" fill="#e94557" stroke-width="0"/>
        <polygon points="269.48 31.85 269.78 25.34 269.78 25.34 252.57 25.34 252.57 31.85 269.48 31.85 269.48 31.85" fill="#e94557" stroke-width="0"/>
        <polygon points="171.82 25.34 171.82 25.34 152.85 25.34 152.85 25.34 151.59 31.85 151.59 31.85 170.56 31.85 171.82 25.34" fill="#e94557" stroke-width="0"/>
        <path d="m148.76,25.34H16.66c.81.96,4.52,5.04,6.01,6.5h0s124.82,0,124.82,0l1.26-6.5Z" fill="#e94557" stroke-width="0"/>
        <path d="m207.58,31.85c.11-.63.21-1.25.29-1.9.15-1.15.24-2.29.28-3.39.41.86.91,1.71,1.5,2.32.2.21,1.23,1.21,1.52,1.44,0,0,.01.02.02.02.59.5,1.26,1.03,2.04,1.51h37c-1.21-2.02-3.29-4.62-8.1-6.5h-53.82s0,.03,0,.05c0,1.56-.21,3.66-.85,6.45h20.12Z" fill="#e94557" stroke-width="0"/>
      </g>
      <g>
        <path d="m153.35,1.46H1c2.25,5.55,7.99,14.39,10.83,17.92h138.08s3.45-17.92,3.45-17.92Z" fill="#e94557" stroke-width="0"/>
        <path d="m270.9,1.46h-18.33s0,13.78,0,13.78c-4.86-10.84-11.88-12.6-16.96-13.76-.03,0-.06-.01-.09-.01h0c-7.92-1.27-16.8,0-22.02,4.63-.02,0-.05.04-.07.06-.4.31-4.76,3.42-6.41,10.76-2.73-9.3-10.18-15.45-21.09-15.45h-28.47s-3.45,17.92-3.45,17.92h18.96s.75-3.91.75-3.91h7.46c2.71.15,4.95,1.13,6.16,3.91h0s38.01,0,38.01,0c-.47-.66-.64-1.34-.64-1.93,0-2.98,3.82-4.22,5.9-4.22,1.24,0,3.7.45,4.88,2.23.56.85,1.02,2.64,1.14,3.91h0s33.44,0,33.44,0l.83-17.92Z" fill="#e94557" stroke-width="0"/>
        <polygon points="312.59 19.38 321.94 1.46 287.42 1.46 279.09 19.38 312.59 19.38" fill="#e94557" stroke-width="0"/>
        <polygon points="309.48 25.34 276.33 25.34 276.33 25.34 273.29 31.85 273.29 31.85 306.08 31.85 309.48 25.34 309.48 25.34" fill="#e94557" stroke-width="0"/>
        <polygon points="269.48 31.85 269.78 25.34 269.78 25.34 252.57 25.34 252.57 31.85 269.48 31.85 269.48 31.85" fill="#e94557" stroke-width="0"/>
        <polygon points="171.82 25.34 171.82 25.34 152.85 25.34 152.85 25.34 151.59 31.85 151.59 31.85 170.56 31.85 171.82 25.34" fill="#e94557" stroke-width="0"/>
        <path d="m148.76,25.34H16.66c.81.96,4.52,5.04,6.01,6.5h0s124.82,0,124.82,0l1.26-6.5Z" fill="#e94557" stroke-width="0"/>
        <path d="m207.58,31.85c.11-.63.21-1.25.29-1.9.15-1.15.24-2.29.28-3.39.41.86.91,1.71,1.5,2.32.2.21,1.23,1.21,1.52,1.44,0,0,.01.02.02.02.59.5,1.26,1.03,2.04,1.51h37c-1.21-2.02-3.29-4.62-8.1-6.5h-53.82s0,.03,0,.05c0,1.56-.21,3.66-.85,6.45h20.12Z" fill="#e94557" stroke-width="0"/>
      </g>
    </g>
    <g>
      <g>
        <polygon points="302.62 38.48 306.08 31.85 273.29 31.85 273.24 31.97 270.22 38.48 302.62 38.48" fill="#fceb26" stroke-width="0"/>
        <path d="m147.5,31.85H22.67c.9,1.03,6.33,5.98,7.12,6.64h116.43s1.27-6.64,1.27-6.64Z" fill="#fceb26" stroke-width="0"/>
        <path d="m205.84,38.48h0c1.32-3.6,1.74-6.63,1.74-6.63h-20.12c-.32,2.05-1.4,4.92-2.11,6.62h0s20.49,0,20.49,0Z" fill="#fceb26" stroke-width="0"/>
        <polygon points="269.17 38.48 269.48 31.85 252.57 31.85 252.57 38.48 269.17 38.48 269.17 38.48" fill="#fceb26" stroke-width="0"/>
        <polygon points="170.56 31.85 151.59 31.85 150.32 38.48 169.28 38.48 170.56 31.85" fill="#fceb26" stroke-width="0"/>
        <path d="m250.23,31.85h-37s2.51,1.38,3.91,1.66c3.89.79,7.64,1.29,9.66,1.84,2.6.72,4.11,1.42,5.32,3.13h19.58c0-3.23-.53-5.03-1.47-6.63Z" fill="#fceb26" stroke-width="0"/>
      </g>
      <g>
        <polygon points="302.62 38.48 306.08 31.85 273.29 31.85 273.24 31.97 270.22 38.48 302.62 38.48" fill="#fceb26" stroke-width="0"/>
        <path d="m147.5,31.85H22.67c.9,1.03,6.33,5.98,7.12,6.64h116.43s1.27-6.64,1.27-6.64Z" fill="#fceb26" stroke-width="0"/>
        <path d="m205.84,38.48h0c1.32-3.6,1.74-6.63,1.74-6.63h-20.12c-.32,2.05-1.4,4.92-2.11,6.62h0s20.49,0,20.49,0Z" fill="#fceb26" stroke-width="0"/>
        <polygon points="269.17 38.48 269.48 31.85 252.57 31.85 252.57 38.48 269.17 38.48 269.17 38.48" fill="#fceb26" stroke-width="0"/>
        <polygon points="170.56 31.85 151.59 31.85 150.32 38.48 169.28 38.48 170.56 31.85" fill="#fceb26" stroke-width="0"/>
        <path d="m250.23,31.85h-37s2.51,1.38,3.91,1.66c3.89.79,7.64,1.29,9.66,1.84,2.6.72,4.11,1.42,5.32,3.13h19.58c0-3.23-.53-5.03-1.47-6.63Z" fill="#fceb26" stroke-width="0"/>
      </g>
    </g>
    <g>
      <polygon points="131.71 54.4 127.76 47.57 123.57 54.77 119.21 47.25 115.16 54.28 112.72 52.87 116.75 45.9 108.17 45.88 112.39 38.54 104.45 38.54 104.45 35.74 112.56 35.74 108.17 28.11 116.51 28.08 112.51 21.15 114.95 19.75 119.09 26.93 123.57 19.22 127.88 26.63 131.92 19.62 134.36 21.04 130.29 28.08 138.97 28.11 134.59 35.74 142.84 35.74 142.84 38.54 134.76 38.54 138.97 45.88 130.05 45.91 134.15 52.99 131.71 54.4" fill="#fff" stroke-width="0"/>
      <polygon points="128.94 30.41 125.87 35.74 131.91 35.74 134.95 30.43 128.94 30.41" fill="#2a3b4f" stroke-width="0"/>
      <polygon points="118.09 43.58 121 38.54 115.08 38.54 112.19 43.56 118.09 43.58" fill="#2a3b4f" stroke-width="0"/>
      <polygon points="125.8 38.54 128.71 43.58 134.95 43.56 132.06 38.54 125.8 38.54" fill="#2a3b4f" stroke-width="0"/>
      <polygon points="120.44 29.26 123.4 34.39 126.53 28.96 123.57 23.87 120.44 29.26" fill="#2a3b4f" stroke-width="0"/>
      <polygon points="120.93 35.74 117.86 30.41 112.19 30.43 115.24 35.74 120.93 35.74" fill="#2a3b4f" stroke-width="0"/>
      <polygon points="126.42 45.23 123.4 40.01 120.55 44.93 123.57 50.12 126.42 45.23" fill="#2a3b4f" stroke-width="0"/>
    </g>
  </g>
  <g>
    <polygon points="413.31 31.03 404.98 31.09 399.77 58.07 413.59 58.05 415.09 51.32 409.35 51.29 413.31 31.03" fill="#2a3b4f" stroke-width="0"/>
    <path d="m403.16,31.03h-8.92s-3.6,17.42-3.6,17.42c0,0-.27,3.15-5.04,2.81-2.51-.19-2.37-2.19-2.29-2.67l3.12-17.53-8.84-.04-3.78,19.57s-.03.21-.04.58c-.03,1.5.48,7.84,7.69,7.86h9.48c7.11,0,7.78-5.33,7.78-5.33l4.46-22.67Z" fill="#2a3b4f" stroke-width="0"/>
    <path d="m367.25,31.01l-2.07,11.09h-7.9s2.14-11,2.14-11l-8.41.03-3.78,19.9h-7.67s-1.08-.11-1.99-1.21c-.15-.18-.28-.45-.28-.45-.39-.86-.55-3.04-.55-3.04,0,0-.04-2.36.25-3.31,0,0,.4-1.52.93-2.28.13-.19.34-.58.34-.58,1.6-2.44,4.02-2.29,4.02-2.29h6.1s1.4-6.76,1.4-6.76c0,0-10.63,0-11.78,0-.63,0-2.56.32-4.45,1.64-1.96,1.37-2.88,2.79-2.88,2.79,0,0-.91,1.31-1.67,3.03l-.25-.67c-2.29-5.07-5.72-5.94-8.15-6.49-.02,0-.03-.02-.05-.02-3.84-.61-8.14,0-10.68,2.25,0,0-.02.02-.04.03-.19.15-2.48,2.09-3.11,5.21-.19.99-.16,1.76-.16,1.76.06,1.02.37,1.79.52,2.23,0,0,.27.6.33.8.25.47.37.66.64,1.02.09.11.62.72.63.72.42.48,1.11.93,1.11.93,0,0,1.18.46,1.86.6,1.89.38,3.71.62,4.69.9,1.26.34,2,.68,2.58,1.54l.1.13c.35.65.31,1.07.31,1.07,0,1.65-1.42,2.73-3.39,2.73-1.86,0-3.82-1.08-3.71-2.89.03-.47.14-.85.19-1.1h-8.78s-.51,1.47.11,4.45c1.01,4.05,5.59,6.02,11.9,6.02,4.13,0,7.27-.83,9.42-2.42,0,0,1.85-1.41,3.1-3.86l.07-.1c.28.75.72,1.65,1.36,2.36,2.23,2.47,5.03,2.41,5.03,2.41l19.53-.02,1.63-8.39h7.8s-1.36,8.38-1.36,8.38h8.82s1.8-9.66,1.8-9.66l3.44-17.42-9.04-.03Zm-39.55,11.99c-.19,1.69-.18,1.97-.14,2.93l-.33-.56c-.86-.98-1.48-1.66-3.41-2.41h0s-.68-.22-1.02-.31c0,0-2.93-.84-6.06-1.82-.54-.2-.81-.35-1.13-.61,0,0-.46-.28-.29-1.1.28-1.41,1.84-2,2.86-2.05.92-.03,1.78.24,2.36,1.09.38.55.56,1.96.56,1.96h7.27s-.48,1.18-.66,2.88Z" fill="#2a3b4f" stroke-width="0"/>
    <polygon points="432.68 42.43 426.07 42.39 426.81 38.52 433.48 38.52 434.97 31.03 419.89 31.03 414.62 58.06 429.65 58.07 431.01 51.35 424.34 51.36 424.84 48.45 431.57 48.45 432.68 42.43" fill="#2a3b4f" stroke-width="0"/>
    <path d="m369.53,1.35l-4.86,25.55-6.04-11.39,10.89-14.16h-8.89s-7.05,8.59-7.05,8.59h-.4s1.69-8.67,1.69-8.67h-9.39s-1.07,6.49-1.07,6.49c-2.28-5.06-5.7-5.94-8.14-6.49,0,0-.03-.01-.05-.01-3.84-.61-8.15,0-10.69,2.26-.01,0-2.13,1.36-3.07,5.13,0,0-.09.57-.14,1.3-.09,1.85.43,2.88.43,2.88,0,0,.2.52.26.71.26.48.38.66.65,1.02.09.11.6.59.74.7,0,0,0,0,0,.01.29.25.62.5.99.73,0,0,1.22.66,1.9.8,1.89.38,3.71.62,4.7.89,1.26.36,1.98.7,2.58,1.52,0,0,.37.15.43,1.42.05,1.26-1.41,2.57-3.39,2.57-1.87,0-3.82-1.07-3.71-2.89.03-.47.14-.85.19-1.1h-8.79s-.51,1.46.11,4.45c1.01,4.05,5.59,6.01,11.9,6.01,4.13,0,7.27-.83,9.42-2.42l-.27,1.38h9.04s1.65-8.08,1.65-8.08l4.77,8.08h18.7s5.19-27.27,5.19-27.27h-10.3Zm-26.51,14.11c-1.03-1.9-3.58-2.63-3.58-2.63-.31-.12-.64-.22-.99-.3,0,0-2.93-.84-6.06-1.83-.54-.2-.89-.47-1.1-.76-.23-.32-.31-.65-.31-.93,0-1.45,1.85-2.05,2.87-2.05.6,0,1.79.22,2.36,1.09.27.41.5,1.28.56,1.9h0l7.24.02-1,5.5Z" fill="#2a3b4f" stroke-width="0"/>
  </g>
</svg>